<?xml version="1.0" encoding="utf-8"?>
<!-- Generator: Adobe Illustrator 19.1.0, SVG Export Plug-In . SVG Version: 6.00 Build 0)  -->
<svg version="1.1" id="Layer_1" xmlns="http://www.w3.org/2000/svg" xmlns:xlink="http://www.w3.org/1999/xlink" x="0px" y="0px"
	 viewBox="0 0 250 146.5" style="enable-background:new 0 0 250 146.5;" xml:space="preserve">
<style type="text/css">
	.st0{fill:url(#SVGID_1_);}
	.st1{fill:url(#SVGID_2_);}
	.st2{fill:url(#SVGID_3_);}
	.st3{fill:url(#SVGID_4_);}
	.st4{fill:url(#SVGID_5_);}
	.st5{fill:url(#SVGID_6_);}
	.st6{fill:url(#SVGID_7_);}
	.st7{fill:url(#SVGID_8_);}
	.st8{fill:url(#SVGID_9_);}
	.st9{fill:url(#SVGID_10_);}
	.st10{fill:url(#SVGID_11_);}
	.st11{fill:url(#SVGID_12_);}
	.st12{fill:#006838;}
	.st13{fill:#6D6E71;}
	.st14{fill:#58595B;}
	.st15{fill:url(#SVGID_13_);}
	.st16{opacity:0.15;}
	.st17{opacity:0.7;fill:url(#SVGID_14_);}
	.st18{fill:url(#SVGID_15_);}
	.st19{fill:url(#SVGID_16_);}
	.st20{fill:url(#SVGID_17_);}
	.st21{fill:url(#SVGID_18_);}
	.st22{opacity:0.7;fill:url(#SVGID_19_);}
	.st23{opacity:0.7;fill:url(#SVGID_20_);}
	.st24{fill:url(#SVGID_21_);}
</style>
<g>
	<linearGradient id="SVGID_1_" gradientUnits="userSpaceOnUse" x1="102.4055" y1="57.1111" x2="145.534" y2="57.1111">
		<stop  offset="0" style="stop-color:#A6CE39"/>
		<stop  offset="2.838316e-003" style="stop-color:#A7CE38"/>
		<stop  offset="0.1261" style="stop-color:#B4D334"/>
		<stop  offset="0.2761" style="stop-color:#BCD631"/>
		<stop  offset="0.5269" style="stop-color:#BFD730"/>
		<stop  offset="0.6604" style="stop-color:#B7D433"/>
		<stop  offset="1" style="stop-color:#A6CE39"/>
	</linearGradient>
	<path class="st0" d="M144.9,68.8c-0.8-1.7-1.5-3.2-2-4.6c0,0,0-0.1-0.1-0.1c-2.7-7-2.6-12.1-5.3-21.4c-1.1-3.8-2.7-6.8-5-9.1
		c-2.4-2.4-5.5-4-9.7-4.9c-6.2-1.3-13.3-1.5-20.4,0c5,3.6,8,8.5,9.9,13.6c2.7,7.1,4.1,12.3,5.2,17.6c1.1,5.3,2.1,10.7,4.2,18.2
		c0.6,1.8,1.2,3.3,1.9,4.5c0.9,1.7,1.9,2.7,2.9,3.3c2.5,1.5,5.1-0.1,7.4-2.1c0.2-0.2,0.4-0.4,0.6-0.6c3.9-3.7,7.4-8,10.6-12.5
		c0.1-0.2,0.3-0.4,0.4-0.7C145.3,69.7,145.1,69.2,144.9,68.8z"/>
	<g>
		<linearGradient id="SVGID_2_" gradientUnits="userSpaceOnUse" x1="118.823" y1="23.8756" x2="121.6773" y2="45.7588">
			<stop  offset="0" style="stop-color:#FFFFFF"/>
			<stop  offset="0.5269" style="stop-color:#BFD730"/>
			<stop  offset="0.6604" style="stop-color:#B7D433"/>
			<stop  offset="1" style="stop-color:#A6CE39"/>
		</linearGradient>
		<path class="st1" d="M136.8,42.5c-11.1-9-20.7-8.1-26.4-5.9c-1.8-3-3.9-5.5-6.3-7.5c2.8-0.5,5.7-0.7,8.7-0.7c3.4,0,6.8,0.3,10.1,1
			C130.2,30.9,134.5,35,136.8,42.5z"/>
	</g>
	<linearGradient id="SVGID_3_" gradientUnits="userSpaceOnUse" x1="121.4153" y1="58.2963" x2="206.4841" y2="58.2963">
		<stop  offset="0.1192" style="stop-color:#007236"/>
		<stop  offset="0.1721" style="stop-color:#00853D"/>
		<stop  offset="0.2308" style="stop-color:#009642"/>
		<stop  offset="0.2956" style="stop-color:#25A444"/>
		<stop  offset="0.369" style="stop-color:#3FAE46"/>
		<stop  offset="0.4582" style="stop-color:#4CB547"/>
		<stop  offset="0.6071" style="stop-color:#50B848"/>
		<stop  offset="1" style="stop-color:#72BF44"/>
	</linearGradient>
	<path class="st2" d="M206.5,21.8c-6,4.4-11,12.1-15.5,18.9c-6.5,9.7-12.3,20.4-18.4,30.9c-0.2,0.4-0.4,0.8-0.7,1.2
		c-3.7,5.4-5.7,7.8-10.1,12.6c-9.6,10.5-20.5,13.3-28.6,10c-2.5-1-5-2.4-7.3-6.2c-0.3-0.5-0.6-1.1-0.9-1.7c-0.6-1.1-1.1-2.5-1.7-4
		c-0.6-1.8-1.3-3.9-1.8-6.4c0.7,2.3,1.4,4.1,2.2,5.4c0.9,1.7,1.9,2.7,2.9,3.3c2.5,1.5,5.1,0,7.4-2.1c0.2-0.2,0.4-0.3,0.6-0.5
		c0,0,0,0,0,0c3.8-3.5,7-7.6,10.1-11.8c7.4-12.8,14.2-26.2,22.3-38c4.7-6.8,14.6-13,23.4-13.5C196.2,19.6,201.7,20.9,206.5,21.8z"/>
	<g>
		<linearGradient id="SVGID_4_" gradientUnits="userSpaceOnUse" x1="128.689" y1="100.7333" x2="180.8132" y2="40.3119">
			<stop  offset="0.1183" style="stop-color:#007236;stop-opacity:0"/>
			<stop  offset="0.1481" style="stop-color:#007B3A;stop-opacity:8.946794e-002"/>
			<stop  offset="0.2385" style="stop-color:#009341;stop-opacity:0.3608"/>
			<stop  offset="0.3222" style="stop-color:#2AA645;stop-opacity:0.6118"/>
			<stop  offset="0.3959" style="stop-color:#47B247;stop-opacity:0.8327"/>
			<stop  offset="0.4516" style="stop-color:#50B848"/>
			<stop  offset="0.8871" style="stop-color:#72BF44"/>
		</linearGradient>
		<path class="st3" d="M200.7,23.4c-4.2,4.3-7.8,9.7-11,14.6l-0.8,1.3c-4.9,7.4-9.6,15.5-14.1,23.3c-1.5,2.6-3,5.1-4.4,7.7l0,0.1
			l0,0.1c-0.2,0.4-0.4,0.6-0.5,0.9c-3.6,5.2-5.4,7.4-9.9,12.3c-6.1,6.7-13.2,10.5-19.9,10.5c-2.1,0-4-0.4-5.8-1.1
			c-1.5-0.6-3.3-1.3-5.2-3.9c2.8-0.1,5.2-2,6.8-3.4c3.7-3.3,7.1-7.3,11.1-12.8l0.1-0.1l0.1-0.1c2.1-3.6,4.2-7.4,6.2-11
			c5-9.1,10.2-18.5,16-26.8c4.5-6.5,13.9-11.9,21.4-12.4c0.6,0,1.2-0.1,1.8-0.1C195.2,22.5,198,22.9,200.7,23.4z"/>
	</g>
	<linearGradient id="SVGID_5_" gradientUnits="userSpaceOnUse" x1="136.2524" y1="91.9662" x2="194.4791" y2="24.4707">
		<stop  offset="0" style="stop-color:#007236;stop-opacity:0"/>
		<stop  offset="0.1098" style="stop-color:#009040;stop-opacity:0.4083"/>
		<stop  offset="0.2144" style="stop-color:#38AB46;stop-opacity:0.7977"/>
		<stop  offset="0.2688" style="stop-color:#50B848"/>
		<stop  offset="0.6452" style="stop-color:#8DC63F"/>
		<stop  offset="0.7361" style="stop-color:#87C540"/>
		<stop  offset="0.8542" style="stop-color:#75C043"/>
		<stop  offset="0.9869" style="stop-color:#53B847"/>
		<stop  offset="1" style="stop-color:#4FB748"/>
	</linearGradient>
	<path class="st4" d="M195.4,25.3c-2.9,3.5-5.5,7.4-7.8,11l-0.2,0.3l-0.8,1.2c-5,7.5-9.7,15.6-14.1,23.5l-1.2,2.1
		c-1.1,1.9-2.2,3.7-3.2,5.6L168,69l0,0.1l0,0.1c-0.2,0.3-0.3,0.5-0.4,0.6c-3.5,5.1-5.2,7.2-9.7,12.1c-5.6,6.2-12,9.6-17.9,9.6
		c-1.7,0-3.4-0.3-4.9-0.9c-0.3-0.1-0.6-0.2-0.9-0.4c1.3-0.8,2.4-1.7,3.3-2.5c3.8-3.5,7.3-7.5,11.4-13.2l0.1-0.1l0.1-0.1l0.1-0.2
		l0-0.1c2.1-3.7,4.2-7.4,6.2-11c5-9,10.2-18.3,15.9-26.5c4.1-5.8,12.8-10.9,19.4-11.2c0.5,0,1.1-0.1,1.7-0.1
		C193.4,25.1,194.4,25.2,195.4,25.3z"/>
	<linearGradient id="SVGID_6_" gradientUnits="userSpaceOnUse" x1="178.8192" y1="49.0652" x2="189.8822" y2="7.3659">
		<stop  offset="3.718600e-002" style="stop-color:#50B848;stop-opacity:0"/>
		<stop  offset="0.5108" style="stop-color:#72BF44"/>
		<stop  offset="1" style="stop-color:#FFFFFF"/>
	</linearGradient>
	<path class="st5" d="M203.4,22.5c-2.5,2.2-4.8,5-7,7.8c-2.4-1.6-5.9-2.6-12.4-1.7c-7.3,1-16.5,8.8-20.9,12.9c1.6-2.5,3.2-5,4.8-7.3
		c4.8-6.9,14.4-12.5,22.4-13c0.6,0,1.2-0.1,1.9-0.1C196.2,21.2,200,21.9,203.4,22.5z"/>
	<linearGradient id="SVGID_7_" gradientUnits="userSpaceOnUse" x1="111.0306" y1="71.3098" x2="91.8998" y2="54.9402">
		<stop  offset="6.694216e-002" style="stop-color:#0066B3"/>
		<stop  offset="9.468910e-002" style="stop-color:#006DB8"/>
		<stop  offset="0.1707" style="stop-color:#007EC6"/>
		<stop  offset="0.2534" style="stop-color:#008CD2"/>
		<stop  offset="0.3428" style="stop-color:#0098DC"/>
		<stop  offset="0.4416" style="stop-color:#00A1E4"/>
		<stop  offset="0.5549" style="stop-color:#00A7EA"/>
		<stop  offset="0.6951" style="stop-color:#00ACED"/>
		<stop  offset="0.9439" style="stop-color:#00AEEF"/>
	</linearGradient>
	<path class="st6" d="M65.5,20.9c7.1-1.5,14.2-1.3,20.4,0c8.3,1.7,12.5,6.4,14.7,14c3.4,11.7,4.5,24.5,10.1,35.2
		c-0.2,0.2-0.3,0.4-0.4,0.7c-3.4,4.7-7,9.2-11.2,13c-3.8,3.5-8.6,5.4-12.2-5.7C82.8,63.2,81,48.8,75.5,34.5
		C73.5,29.3,70.5,24.4,65.5,20.9L65.5,20.9z M89,84.9L89,84.9L89,84.9L89,84.9z"/>
	<linearGradient id="SVGID_8_" gradientUnits="userSpaceOnUse" x1="108.1668" y1="104.6622" x2="149.8088" y2="5.3622">
		<stop  offset="7.618331e-002" style="stop-color:#112369"/>
		<stop  offset="0.1338" style="stop-color:#003B7F"/>
		<stop  offset="0.1976" style="stop-color:#004E94"/>
		<stop  offset="0.2681" style="stop-color:#005DA4"/>
		<stop  offset="0.348" style="stop-color:#0068B0"/>
		<stop  offset="0.4451" style="stop-color:#006FB8"/>
		<stop  offset="0.6071" style="stop-color:#0072BC"/>
		<stop  offset="1" style="stop-color:#0089CF"/>
	</linearGradient>
	<path class="st7" d="M184.3,1.9c-6,4.4-11,12.1-15.5,18.9c-9,13.6-16.8,29-26,43.3c0,0,0,0,0,0.1c-4.8,7.5-10,14.7-15.9,21.2
		c-0.2,0.2-0.3,0.3-0.5,0.5c-0.5,0.6-1,1.1-1.6,1.6c-0.5,0.5-1.1,1-1.6,1.5c-8.6,7.5-17.9,9.3-25,6.5c-4.2-1.7-8.4-4.4-11.7-18.3
		c3.7,12.2,8.6,10.2,12.5,6.6c5.3-4.8,9.7-10.7,13.8-16.8c1.6-2.3,3.1-4.7,4.6-7.1c5.3-8.5,10.1-17.5,15-26.3
		c3.9-6.9,7.9-13.7,12.3-20c4.7-6.8,14.6-13,23.4-13.5C174.1-0.3,179.6,1,184.3,1.9z"/>
	<g>
		<linearGradient id="SVGID_9_" gradientUnits="userSpaceOnUse" x1="114.922" y1="98.1216" x2="157.4641" y2="-3.325">
			<stop  offset="0" style="stop-color:#112369"/>
			<stop  offset="2.360035e-003" style="stop-color:#10246A"/>
			<stop  offset="4.756949e-002" style="stop-color:#003C81"/>
			<stop  offset="9.661126e-002" style="stop-color:#004F95"/>
			<stop  offset="0.1514" style="stop-color:#005EA5"/>
			<stop  offset="0.2141" style="stop-color:#0068B0"/>
			<stop  offset="0.2918" style="stop-color:#006FB8"/>
			<stop  offset="0.4297" style="stop-color:#0072BC"/>
			<stop  offset="0.7527" style="stop-color:#0089CF"/>
		</linearGradient>
		<path class="st8" d="M175.9,4.4c-3.5,4-6.6,8.7-9.5,13l-0.8,1.2c-4.9,7.4-9.5,15.4-14,23.1c-8.2,14.2-16.6,29-27.6,41
			c-5.9,6.5-12.6,10-18.9,10c-1.9,0-3.7-0.3-5.3-1c-0.9-0.4-2-0.8-3.1-1.8c2.1-0.7,3.9-2.1,5.1-3.3c5.7-5.2,10.3-11.5,14.4-17.5
			c5.8-8.5,10.9-17.7,15.9-26.7c5-9.1,10.2-18.4,16-26.7c4.3-6.2,13.3-11.4,20.4-11.8c0.6,0,1.1-0.1,1.7-0.1
			C172.1,4,174,4.1,175.9,4.4z"/>
	</g>
	<linearGradient id="SVGID_10_" gradientUnits="userSpaceOnUse" x1="111.4247" y1="71.0342" x2="66.9564" y2="32.9841">
		<stop  offset="0" style="stop-color:#0089CF"/>
		<stop  offset="0.2022" style="stop-color:#0097DB"/>
		<stop  offset="0.4326" style="stop-color:#00A2E5"/>
		<stop  offset="0.6396" style="stop-color:#00AAEC"/>
		<stop  offset="0.8015" style="stop-color:#00AEEF"/>
	</linearGradient>
	<path class="st9" d="M107.7,69.9c-3.7,5.2-7,8.9-10.3,11.9c-1.9,1.7-3,2-3.6,2c-1.4,0-3-2.4-4.4-6.5c-1.5-5.4-2.7-10.9-3.9-16.2
		c-2-9.1-4.1-18.5-7.6-27.7c-1.7-4.3-3.8-7.9-6.4-10.8c1.4-0.1,2.9-0.2,4.3-0.2c3.3,0,6.5,0.3,9.6,1c6.9,1.4,10.7,5.1,12.7,12.1
		c1.1,3.8,2,7.9,2.8,11.8C102.6,55,104.3,62.8,107.7,69.9z"/>
	<linearGradient id="SVGID_11_" gradientUnits="userSpaceOnUse" x1="108.7106" y1="69.8591" x2="68.1614" y2="35.1624">
		<stop  offset="9.928720e-002" style="stop-color:#0089CF"/>
		<stop  offset="0.125" style="stop-color:#008CD1"/>
		<stop  offset="0.3065" style="stop-color:#009ADE"/>
		<stop  offset="0.4831" style="stop-color:#00A4E7"/>
		<stop  offset="0.6512" style="stop-color:#00AAEC"/>
		<stop  offset="0.8015" style="stop-color:#00AEEF"/>
	</linearGradient>
	<path class="st10" d="M105.4,70.9c-2.2,4.4-3.5,5.8-6.3,10.2c-0.5,0.8-3.1,3.5-3.5,3.7c-0.5-0.6-2.8-5.6-3.7-8.2
		c-1.5-5.4-2.7-10.8-3.8-16c-2-9.2-4.1-18.6-7.7-28c-1.1-2.7-2.3-5.2-3.7-7.4c2.8,0.1,5.6,0.4,8.2,0.9c5.9,1.2,8.9,4.1,10.7,10.3
		c1,3.6,1.9,7.4,2.8,11.6C99.9,55.2,102.3,63.9,105.4,70.9z"/>
	<g>
		<linearGradient id="SVGID_12_" gradientUnits="userSpaceOnUse" x1="82.8744" y1="41.0043" x2="85.8209" y2="9.6443">
			<stop  offset="0.245" style="stop-color:#007DC5;stop-opacity:0"/>
			<stop  offset="0.3302" style="stop-color:#0088CB;stop-opacity:0.1611"/>
			<stop  offset="0.5203" style="stop-color:#79AEDE;stop-opacity:0.5202"/>
			<stop  offset="0.7742" style="stop-color:#FFFFFF"/>
		</linearGradient>
		<path class="st11" d="M99.3,36.3c-4.5-7.3-7.3-7.9-11.8-9.8c-3.9-1.6-11.2-1-13.8,1.5c-1.5-2.4-3.2-4.5-5.1-6.3
			c2.3-0.3,4.8-0.5,7.1-0.5c3.4,0,6.7,0.3,9.9,1C91.8,23.4,97.2,27.1,99.3,36.3z"/>
	</g>
	<g>
		<polygon class="st12" points="7.2,119.1 3.4,104.1 0,104.1 5.5,125 8.8,125 14.5,104.1 11.1,104.1 		"/>
		<path class="st12" d="M16.4,105.4c-0.3,0.4-0.5,0.8-0.5,1.3c0,0.5,0.2,0.9,0.5,1.3s0.8,0.5,1.3,0.5c0.5,0,0.9-0.2,1.3-0.5
			c0.4-0.3,0.5-0.8,0.5-1.3c0-0.5-0.2-0.9-0.5-1.3C18.3,104.6,17.1,104.6,16.4,105.4z"/>
		<rect x="16" y="109.5" class="st12" width="3.3" height="15.5"/>
		<path class="st12" d="M30.8,109.5h-2.4c-0.4,0-0.8,0-1.3,0.1c-0.5,0-1,0.1-1.5,0.2c-0.5,0.1-1,0.3-1.5,0.5c-0.5,0.2-1,0.5-1.3,0.9
			c-0.4,0.4-0.7,0.9-1,1.4c-0.2,0.6-0.4,1.2-0.3,2v5.2c0,1.2,0.2,2.1,0.8,2.8c0.5,0.7,1.1,1.2,1.9,1.5c0.7,0.3,1.5,0.6,2.3,0.7
			c0.8,0.1,1.4,0.2,2,0.2h5.7v-20.9h-3.3V109.5z M30.8,122.8h-1.7c-0.4,0-0.9,0-1.4-0.1c-0.5,0-1-0.2-1.4-0.4
			c-0.4-0.2-0.8-0.5-1.1-0.9c-0.3-0.4-0.4-0.9-0.4-1.6v-5.1c0-0.7,0.1-1.3,0.4-1.6c0.3-0.4,0.6-0.7,1-0.9c0.5-0.2,0.9-0.3,1.4-0.4
			c0.5-0.1,1-0.1,1.4-0.1h1.7V122.8z"/>
		<path class="st12" d="M45.9,110.4c-0.7-0.3-1.5-0.6-2.3-0.7c-1.7-0.2-2.9-0.2-3.7,0c-0.4,0.1-0.8,0.2-1,0.3l-0.3,0.1v1.5H41
			c0.4,0,0.9,0,1.4,0.1c0.5,0.1,1,0.2,1.4,0.4c0.4,0.2,0.8,0.5,1.1,0.9c0.2,0.3,0.3,0.7,0.4,1.3c-1,0-1.9,0-2.9,0.1
			c-1.1,0.1-2.2,0.4-3.1,0.7c-0.9,0.4-1.7,1-2.3,1.7c-0.6,0.8-1,1.7-1,2.9c0,1.2,0.2,2.1,0.8,2.8c0.5,0.7,1.1,1.2,1.9,1.5
			c0.7,0.3,1.5,0.6,2.3,0.7c0.8,0.1,1.4,0.2,2,0.2h5.7v-10.3c0-1.1-0.2-2.1-0.8-2.8C47.3,111.3,46.7,110.7,45.9,110.4z M43.5,122.8
			c-0.4,0-0.9,0-1.4-0.1c-0.5,0-1-0.2-1.4-0.4c-0.4-0.2-0.8-0.5-1.1-0.9c-0.3-0.4-0.4-0.9-0.4-1.6c0-0.7,0.2-1.3,0.5-1.7
			c0.3-0.4,0.8-0.8,1.3-1c0.6-0.2,1.3-0.4,2.1-0.4c0.4,0,0.9,0,1.3,0c0.2,0,0.5,0,0.7,0v6.1H43.5z"/>
		<polygon class="st12" points="68.4,118.2 60.9,104.1 57.9,104.1 57.9,125 61.2,125 61.2,111.1 68.6,125 71.7,125 71.7,104.1 
			68.4,104.1 		"/>
		<path class="st12" d="M82.6,120.1c0,0.9-0.2,1.6-0.8,2.2c-0.5,0.5-1.2,0.8-2.2,0.8c-1,0-1.7-0.3-2.2-0.8c-0.5-0.6-0.7-1.3-0.7-2.2
			v-10.6h-3.3v10.7c0,0.8,0.2,1.5,0.5,2.2c0.4,0.6,0.8,1.2,1.4,1.6c0.6,0.4,1.2,0.8,2,1c0.7,0.2,1.5,0.3,2.3,0.3s1.6-0.1,2.3-0.3
			c0.7-0.2,1.4-0.6,2-1c0.6-0.4,1.1-1,1.4-1.6c0.4-0.6,0.6-1.4,0.6-2.2v-10.7h-3.3V120.1z"/>
		<path class="st12" d="M92.5,110.2c-0.5,0.1-1,0.2-1.5,0.3v-3.9h-3.3v13.1c0,0.8,0.1,1.4,0.3,2c0.2,0.6,0.5,1,0.9,1.4
			c0.4,0.4,0.8,0.7,1.3,0.9c0.5,0.2,1,0.4,1.5,0.5c0.5,0.1,1,0.2,1.4,0.2c0.5,0,0.9,0.1,1.3,0.1h0.5v-2.2l-0.4,0
			c-0.4,0-0.8-0.1-1.3-0.2c-0.4-0.1-0.8-0.2-1.1-0.5c-0.3-0.2-0.6-0.5-0.8-0.9c-0.2-0.4-0.3-0.8-0.3-1.5v-4.7c0-0.5,0.1-1,0.3-1.3
			c0.2-0.3,0.5-0.6,0.8-0.8c0.3-0.2,0.7-0.3,1.1-0.4c0.4-0.1,0.9-0.1,1.2-0.2l0.4,0v-2.2h-0.5C93.8,110.1,93.2,110.2,92.5,110.2z"/>
		<path class="st12" d="M99.6,110c-0.9,0.3-1.6,0.7-2.1,1.2c-0.5,0.5-0.9,1.1-1,1.7c-0.2,0.6-0.3,1.2-0.3,1.8V125h3.3v-10.3
			c0-0.6,0.1-1.1,0.3-1.4c0.2-0.4,0.5-0.7,0.8-0.9c0.3-0.2,0.7-0.4,1.1-0.5c0.4-0.1,0.9-0.2,1.3-0.2c0.7-0.1,1.2-0.1,1.6-0.2
			c0.4-0.1,0.8-0.2,1.1-0.3l0.3-0.1v-1.6h-3C101.6,109.5,100.5,109.7,99.6,110z"/>
		<path class="st12" d="M107.8,105.4c-0.3,0.4-0.5,0.8-0.5,1.3c0,0.5,0.2,0.9,0.5,1.3s0.8,0.5,1.3,0.5c0.5,0,0.9-0.2,1.3-0.5
			c0.4-0.3,0.5-0.8,0.5-1.3c0-0.5-0.2-0.9-0.5-1.3C109.7,104.6,108.5,104.6,107.8,105.4z"/>
		<rect x="107.4" y="109.5" class="st12" width="3.3" height="15.5"/>
		<path class="st12" d="M120.4,115.4c-0.4-0.1-0.8-0.2-1.2-0.3c-0.5-0.1-0.9-0.3-1.4-0.4c-0.6-0.2-1.1-0.4-1.4-0.6
			c-0.3-0.2-0.4-0.5-0.4-0.8c0-0.4,0.1-0.8,0.5-1c0.4-0.3,0.9-0.4,1.6-0.4h2.2c0.7,0,1.2,0,1.6-0.1c0.4-0.1,0.8-0.2,1-0.3l0.3-0.1
			v-1.6h-4.8c-0.8,0-1.5,0.1-2.2,0.2c-0.7,0.2-1.3,0.4-1.8,0.8c-0.5,0.4-0.9,0.8-1.2,1.3c-0.3,0.5-0.4,1.2-0.4,1.9
			c0,0.6,0.1,1.1,0.4,1.5c0.2,0.4,0.5,0.8,0.8,1.1c0.3,0.3,0.7,0.5,1.1,0.7c0.4,0.2,0.7,0.3,1,0.4c0.1,0,0.3,0.1,0.6,0.2l2.4,0.6
			c0.8,0.2,1.4,0.4,1.9,0.8c0.4,0.3,0.6,0.7,0.6,1.2c0,0.3,0,0.6-0.1,0.9c-0.1,0.3-0.2,0.5-0.5,0.8c-0.2,0.2-0.5,0.4-0.9,0.6
			c-0.4,0.2-0.8,0.2-1.4,0.2h-2.9c-0.7,0-1.2,0-1.6,0.1c-0.4,0.1-0.8,0.2-1,0.3l-0.3,0.1v1.6h7.1c0.7,0,1.3-0.1,1.9-0.3
			c0.6-0.2,1.2-0.5,1.6-1c0.5-0.4,0.8-0.9,1.1-1.6c0.2-0.6,0.4-1.3,0.3-2.1c0-1.4-0.5-2.5-1.3-3.2
			C122.8,116.2,121.7,115.7,120.4,115.4z"/>
		<path class="st12" d="M136.3,109.6c-0.4-0.1-1-0.1-1.7-0.1h0l-1.4,0c-0.4,0-0.8,0-1.3,0.1c-0.5,0-1,0.1-1.5,0.2
			c-0.5,0.1-1,0.3-1.5,0.5c-0.5,0.2-1,0.5-1.4,0.9c-0.4,0.4-0.7,0.9-0.9,1.4c-0.2,0.6-0.4,1.2-0.3,2v5.2c0,0.8,0.1,1.4,0.3,2
			c0.2,0.5,0.6,1,0.9,1.4c0.4,0.4,0.8,0.7,1.3,0.9c0.5,0.2,1,0.4,1.5,0.5c0.5,0.1,1,0.2,1.5,0.2c0.5,0,0.9,0.1,1.3,0.1h1.4
			c0.7,0,1.2,0,1.6-0.1c0.4-0.1,0.8-0.2,1.1-0.3l0.3-0.1v-1.6H134c-0.4,0-0.9,0-1.4-0.1c-0.5,0-1-0.2-1.4-0.4
			c-0.4-0.2-0.8-0.5-1.1-0.9c-0.3-0.4-0.4-0.9-0.4-1.6v-5.1c0-0.7,0.1-1.3,0.4-1.6c0.3-0.4,0.6-0.7,1-0.9c0.4-0.2,0.9-0.3,1.4-0.4
			c0.5-0.1,1-0.1,1.4-0.1h3.6v-1.6l-0.3-0.1C137,109.8,136.7,109.7,136.3,109.6z"/>
		<path class="st12" d="M139.9,105.4c-0.3,0.4-0.5,0.8-0.5,1.3c0,0.5,0.2,0.9,0.5,1.3c0.3,0.3,0.8,0.5,1.3,0.5
			c0.5,0,0.9-0.2,1.3-0.5c0.4-0.3,0.5-0.8,0.5-1.3c0-0.5-0.2-0.9-0.5-1.3C141.8,104.6,140.6,104.6,139.9,105.4z"/>
		<rect x="139.6" y="109.5" class="st12" width="3.3" height="15.5"/>
		<path class="st12" d="M155.6,110.6c-0.6-0.5-1.2-0.8-2-1.1c-1.7-0.5-3.5-0.4-4.9,0.1c-0.8,0.3-1.4,0.8-2,1.4
			c-0.5,0.6-1,1.3-1.2,2.1c-0.3,0.8-0.4,1.6-0.4,2.5v4.2c0,1.2,0.2,2.1,0.8,2.8c0.5,0.7,1.1,1.2,1.9,1.5c0.7,0.3,1.5,0.6,2.3,0.7
			c0.8,0.1,1.4,0.2,2,0.2h1.1c0.7,0,1.2,0,1.6-0.1c0.4-0.1,0.8-0.2,1-0.3l0.3-0.1v-1.6h-3.3c-0.4,0-0.9,0-1.4-0.1
			c-0.5,0-1-0.2-1.4-0.4c-0.4-0.2-0.8-0.5-1-0.8c-0.3-0.3-0.4-0.9-0.4-1.5v-0.7c0.4,0.1,0.7,0.1,1.2,0.1c0.6,0,1.3,0,2-0.1
			c0.7-0.1,1.4-0.2,2-0.4c0.7-0.2,1.3-0.5,1.8-0.9c0.6-0.4,1-0.8,1.4-1.4c0.4-0.6,0.6-1.2,0.6-2c0-0.8-0.1-1.6-0.4-2.3
			C156.6,111.6,156.2,111.1,155.6,110.6z M154.2,114.4c0,0.5-0.2,0.9-0.5,1.3c-0.3,0.3-0.7,0.6-1.2,0.8c-0.6,0.2-1.2,0.4-2,0.4
			c-0.7,0.1-1.4,0.1-2.2,0v-2.3c0-1,0.3-1.8,0.8-2.4c0.5-0.6,1.2-0.9,2.2-0.9c0.4,0,0.8,0.1,1.2,0.2c0.4,0.1,0.7,0.3,0.9,0.6
			c0.3,0.3,0.5,0.6,0.6,0.9C154.2,113.5,154.3,113.9,154.2,114.4z"/>
		<path class="st12" d="M169,110.3c-0.7-0.3-1.5-0.6-2.3-0.7c-0.8-0.1-1.4-0.1-2-0.1H159V125h3.3v-13.3h1.7c0.4,0,0.9,0,1.4,0.1
			c0.5,0,1,0.2,1.4,0.4c0.4,0.2,0.8,0.5,1,0.9c0.3,0.4,0.4,0.9,0.4,1.7V125h3.3v-10.4c0-1.1-0.2-2.1-0.7-2.8
			C170.4,111.2,169.8,110.7,169,110.3z"/>
		<path class="st12" d="M183.2,109.6c-0.4-0.1-1-0.1-1.7-0.1h0l-1.4,0c-0.4,0-0.8,0-1.3,0.1c-0.5,0-1,0.1-1.5,0.2
			c-0.5,0.1-1,0.3-1.5,0.5c-0.5,0.2-1,0.5-1.4,0.9s-0.7,0.9-0.9,1.4c-0.2,0.6-0.4,1.2-0.3,2v5.2c0,0.8,0.1,1.4,0.3,2
			c0.2,0.6,0.6,1,0.9,1.4c0.4,0.4,0.8,0.7,1.3,0.9c0.5,0.2,1,0.4,1.5,0.5c0.5,0.1,1,0.2,1.5,0.2c0.5,0,0.9,0.1,1.3,0.1h1.4
			c0.7,0,1.2,0,1.6-0.1c0.4-0.1,0.8-0.2,1.1-0.3l0.3-0.1v-1.6h-3.6c-0.4,0-0.9,0-1.4-0.1c-0.5,0-1-0.2-1.4-0.4
			c-0.4-0.2-0.8-0.5-1.1-0.9c-0.3-0.4-0.4-0.9-0.4-1.6v-5.1c0-0.7,0.1-1.3,0.4-1.6c0.3-0.4,0.6-0.7,1-0.9c0.5-0.2,0.9-0.3,1.4-0.4
			c0.5-0.1,1-0.1,1.4-0.1h3.6v-1.6l-0.3-0.1C183.9,109.8,183.6,109.7,183.2,109.6z"/>
		<path class="st12" d="M196.5,110.6c-0.6-0.5-1.2-0.8-2-1.1c-1.7-0.5-3.5-0.4-4.9,0.1c-0.8,0.3-1.4,0.8-2,1.4
			c-0.5,0.6-1,1.3-1.2,2.1c-0.3,0.8-0.4,1.6-0.4,2.5v4.2c0,1.2,0.2,2.1,0.8,2.8c0.5,0.7,1.1,1.2,1.9,1.5c0.7,0.3,1.5,0.6,2.3,0.7
			c0.8,0.1,1.4,0.2,2,0.2h1.1c0.7,0,1.2,0,1.6-0.1c0.4-0.1,0.8-0.2,1-0.3l0.3-0.1v-1.6h-3.3c-0.4,0-0.9,0-1.4-0.1
			c-0.5,0-1-0.2-1.4-0.4c-0.4-0.2-0.8-0.5-1-0.8c-0.3-0.3-0.4-0.9-0.4-1.5v-0.7c0.4,0.1,0.7,0.1,1.2,0.1c0.6,0,1.3,0,2-0.1
			c0.7-0.1,1.4-0.2,2-0.4c0.7-0.2,1.3-0.5,1.8-0.9c0.6-0.4,1-0.8,1.4-1.4c0.4-0.6,0.6-1.2,0.6-2c0-0.8-0.1-1.6-0.4-2.3
			C197.5,111.6,197.1,111.1,196.5,110.6z M195.1,114.4c0,0.5-0.2,0.9-0.5,1.3c-0.3,0.3-0.7,0.6-1.2,0.8c-0.6,0.2-1.2,0.4-2,0.4
			c-0.7,0.1-1.4,0.1-2.2,0v-2.3c0-1,0.3-1.8,0.8-2.4c0.5-0.6,1.2-0.9,2.2-0.9c0.4,0,0.8,0.1,1.2,0.2c0.4,0.1,0.7,0.3,0.9,0.6
			c0.3,0.3,0.5,0.6,0.6,0.9C195.1,113.5,195.2,113.9,195.1,114.4z"/>
		<path class="st12" d="M200.5,125h0.5c0,0.4-0.1,0.7-0.2,1c-0.1,0.4-0.2,0.8-0.4,1.1c-0.2,0.3-0.3,0.6-0.5,0.9l-0.6,0.8h2.4
			l0.1-0.1c0.4-0.3,0.8-0.7,1.1-1.1c0.3-0.4,0.6-0.8,0.8-1.3c0.3-0.5,0.4-1.1,0.4-1.8v-4h-3.7V125z"/>
		<rect x="213.8" y="104.1" class="st12" width="3.3" height="20.9"/>
		<path class="st12" d="M229.3,110.3c-0.7-0.3-1.5-0.6-2.3-0.7c-0.8-0.1-1.4-0.1-2-0.1h-5.7V125h3.3v-13.3h1.7c0.4,0,0.9,0,1.4,0.1
			c0.5,0,1,0.2,1.4,0.4c0.4,0.2,0.8,0.5,1,0.9c0.3,0.4,0.4,0.9,0.4,1.7V125h3.3v-10.4c0-1.1-0.2-2.1-0.7-2.8
			C230.6,111.2,230,110.7,229.3,110.3z"/>
		<path class="st12" d="M243.4,109.6c-0.4-0.1-0.9-0.1-1.7-0.1h0l-1.4,0c-0.4,0-0.8,0-1.3,0.1c-0.5,0-1,0.1-1.5,0.2
			c-0.5,0.1-1,0.3-1.5,0.5c-0.5,0.2-1,0.5-1.4,0.9c-0.4,0.4-0.7,0.9-0.9,1.4c-0.2,0.6-0.4,1.2-0.3,2v5.2c0,0.8,0.1,1.4,0.3,2
			c0.2,0.5,0.5,1,0.9,1.4c0.4,0.4,0.8,0.7,1.3,0.9c0.5,0.2,1,0.4,1.5,0.5c0.5,0.1,1,0.2,1.5,0.2c0.5,0,0.9,0.1,1.3,0.1h1.4
			c0.7,0,1.2,0,1.6-0.1c0.4-0.1,0.8-0.2,1.1-0.3l0.3-0.1v-1.6h-3.6c-0.4,0-0.9,0-1.4-0.1c-0.5,0-1-0.2-1.4-0.4
			c-0.4-0.2-0.8-0.5-1.1-0.9c-0.3-0.4-0.4-0.9-0.4-1.6v-5.1c0-0.7,0.1-1.3,0.4-1.6c0.3-0.4,0.6-0.7,1-0.9c0.4-0.2,0.9-0.3,1.4-0.4
			c0.5-0.1,1-0.1,1.4-0.1h3.6v-1.6l-0.3-0.1C244.2,109.8,243.8,109.7,243.4,109.6z"/>
		<rect x="246.3" y="120.5" class="st12" width="3.7" height="4.5"/>
	</g>
	<g>
		<g>
			<path class="st13" d="M23.8,134h4.1c1.6,0,3.1,0.6,3.1,2.4c0,1-0.7,1.9-1.7,2.2v0c1.2,0.2,2,1.1,2,2.4c0,0.9-0.3,2.7-3.5,2.7
				h-4.1V134z M24.7,138.3h3.2c1.5,0,2.2-0.7,2.2-1.6c0-1.2-0.7-1.8-2.2-1.8h-3.2V138.3z M24.7,142.9h3.2c1.4,0,2.5-0.4,2.5-2
				c0-1.2-0.9-1.9-2.5-1.9h-3.2V142.9z"/>
		</g>
		<g>
			<path class="st13" d="M34.1,140.4c0,1.2,0.7,2.7,2.3,2.7c1.2,0,1.9-0.7,2.2-1.8h0.9c-0.4,1.6-1.3,2.5-3,2.5
				c-2.2,0-3.2-1.7-3.2-3.7c0-1.8,0.9-3.7,3.2-3.7c2.2,0,3.1,2,3.1,3.9H34.1z M38.7,139.7c0-1.3-0.8-2.5-2.2-2.5
				c-1.4,0-2.2,1.2-2.3,2.5H38.7z"/>
		</g>
		<g>
			<path class="st13" d="M41.6,138.8c0.1-1.6,1.2-2.3,2.8-2.3c1.2,0,2.6,0.4,2.6,2.2v3.7c0,0.3,0.2,0.5,0.5,0.5c0.1,0,0.2,0,0.3-0.1
				v0.7c-0.2,0-0.3,0.1-0.6,0.1c-0.9,0-1-0.5-1-1.2h0c-0.6,0.9-1.2,1.4-2.5,1.4c-1.3,0-2.3-0.6-2.3-2c0-2,1.9-2,3.7-2.2
				c0.7-0.1,1.1-0.2,1.1-0.9c0-1.2-0.8-1.4-1.8-1.4c-1.1,0-1.8,0.5-1.9,1.6H41.6z M46.2,139.9L46.2,139.9c-0.1,0.2-0.5,0.3-0.7,0.3
				c-1.4,0.3-3.2,0.2-3.2,1.6c0,0.9,0.8,1.4,1.6,1.4c1.3,0,2.4-0.8,2.4-2.2V139.9z"/>
		</g>
		<g>
			<path class="st13" d="M55.4,143.7h-0.8v-1.3h0c-0.4,0.9-1.4,1.5-2.4,1.5c-1.8,0-2.5-1-2.5-2.7v-4.5h0.9v4.5
				c0,1.3,0.5,1.9,1.9,1.9c1.5,0,2.1-1.4,2.1-2.8v-3.7h0.9V143.7z"/>
		</g>
		<g>
			<path class="st13" d="M59.4,136.7h1.4v0.7h-1.4v4.7c0,0.6,0.1,0.9,0.7,0.9c0.2,0,0.5,0,0.7,0v0.7c-0.3,0-0.5,0-0.8,0
				c-1.1,0-1.5-0.4-1.5-1.6v-4.8h-1.2v-0.7h1.2v-2.1h0.9V136.7z"/>
		</g>
		<g>
			<path class="st13" d="M62.3,136.7h0.9l2.3,6l2.2-6h0.9l-3,8.1c-0.5,1.2-0.8,1.5-1.8,1.5c-0.3,0-0.5,0-0.6-0.1v-0.7
				c0.2,0,0.4,0.1,0.6,0.1c0.8,0,0.9-0.4,1.2-1.1l0.3-0.8L62.3,136.7z"/>
		</g>
		<g>
			<path class="st13" d="M85.3,140.5c0,2,1.4,2.6,3.2,2.6c1,0,2.6-0.6,2.6-2c0-1.1-1.1-1.5-2-1.7l-2.2-0.5c-1.1-0.3-2.2-0.8-2.2-2.3
				c0-0.9,0.6-2.7,3.3-2.7c1.9,0,3.6,1,3.6,3h-0.9c-0.1-1.5-1.3-2.2-2.6-2.2c-1.3,0-2.4,0.5-2.4,1.9c0,0.9,0.7,1.3,1.5,1.5l2.4,0.6
				c1.4,0.4,2.5,1,2.5,2.5c0,0.7-0.3,2.8-3.7,2.8c-2.3,0-4-1-3.9-3.4H85.3z"/>
		</g>
		<g>
			<path class="st13" d="M94.2,134h0.9v9.7h-0.9V134z"/>
		</g>
		<g>
			<path class="st13" d="M97.7,134h0.9v1.4h-0.9V134z M97.7,136.7h0.9v7h-0.9V136.7z"/>
		</g>
		<g>
			<path class="st13" d="M101.3,136.7h0.8v1.2h0c0.4-0.8,1.2-1.4,2.3-1.4c0.9,0,1.7,0.4,2,1.4c0.4-0.9,1.3-1.4,2.2-1.4
				c1.5,0,2.3,0.8,2.3,2.4v4.7h-0.9V139c0-1.2-0.4-1.8-1.7-1.8c-1.5,0-1.9,1.2-1.9,2.5v4h-0.9v-4.7c0-0.9-0.4-1.7-1.5-1.7
				c-1.5,0-2.1,1.1-2.1,2.6v3.9h-0.9V136.7z"/>
		</g>
		<g>
			<path class="st13" d="M113.6,136.7h0.8v1.2h0c0.4-0.8,1.2-1.4,2.3-1.4c0.9,0,1.7,0.4,2,1.4c0.4-0.9,1.3-1.4,2.2-1.4
				c1.5,0,2.3,0.8,2.3,2.4v4.7h-0.9V139c0-1.2-0.4-1.8-1.7-1.8c-1.5,0-1.9,1.2-1.9,2.5v4h-0.9v-4.7c0-0.9-0.4-1.7-1.5-1.7
				c-1.5,0-2.1,1.1-2.1,2.6v3.9h-0.9V136.7z"/>
		</g>
		<g>
			<path class="st13" d="M125.9,134h0.9v1.4h-0.9V134z M125.9,136.7h0.9v7h-0.9V136.7z"/>
		</g>
		<g>
			<path class="st13" d="M129.4,136.7h0.9v1.2h0c0.3-0.8,1.2-1.4,2.2-1.4c2,0,2.6,1,2.6,2.7v4.5h-0.9v-4.4c0-1.2-0.4-2.1-1.8-2.1
				c-1.4,0-2.2,1-2.2,2.4v4.1h-0.9V136.7z"/>
		</g>
		<g>
			<path class="st13" d="M143.6,143.1c0,2.1-0.8,3.4-3.1,3.4c-1.4,0-2.8-0.6-2.9-2.1h0.9c0.2,1,1.1,1.4,2,1.4c1.6,0,2.2-0.9,2.2-2.6
				v-0.9h0c-0.4,0.9-1.2,1.4-2.2,1.4c-2.2,0-3.2-1.6-3.2-3.6c0-1.9,1.1-3.5,3.2-3.5c1,0,1.9,0.6,2.2,1.4h0v-1.2h0.9V143.1z
				 M142.7,140.1c0-1.4-0.6-2.9-2.2-2.9c-1.6,0-2.3,1.4-2.3,2.9c0,1.4,0.7,2.8,2.3,2.8C141.9,142.9,142.7,141.5,142.7,140.1z"/>
		</g>
		<g>
			<path class="st13" d="M159.7,134h1l2.2,8.5h0l2.4-8.5h1.2l2.4,8.5h0l2.2-8.5h0.9l-2.7,9.7h-1l-2.4-8.6h0l-2.4,8.6h-1L159.7,134z"
				/>
		</g>
		<g>
			<path class="st13" d="M174.1,140.4c0,1.2,0.7,2.7,2.3,2.7c1.2,0,1.9-0.7,2.2-1.8h0.9c-0.4,1.6-1.3,2.5-3,2.5
				c-2.2,0-3.2-1.7-3.2-3.7c0-1.8,0.9-3.7,3.2-3.7c2.2,0,3.1,2,3.1,3.9H174.1z M178.6,139.7c0-1.3-0.8-2.5-2.2-2.5
				c-1.4,0-2.2,1.2-2.3,2.5H178.6z"/>
		</g>
		<g>
			<path class="st13" d="M181.7,134h0.9v9.7h-0.9V134z"/>
		</g>
		<g>
			<path class="st13" d="M185.2,134h0.9v9.7h-0.9V134z"/>
		</g>
		<g>
			<path class="st13" d="M188.7,136.7h0.9v1.2h0c0.3-0.8,1.2-1.4,2.2-1.4c2,0,2.6,1,2.6,2.7v4.5h-0.9v-4.4c0-1.2-0.4-2.1-1.8-2.1
				c-1.4,0-2.2,1-2.2,2.4v4.1h-0.9V136.7z"/>
		</g>
		<g>
			<path class="st13" d="M197.5,140.4c0,1.2,0.7,2.7,2.3,2.7c1.2,0,1.9-0.7,2.2-1.8h0.9c-0.4,1.6-1.3,2.5-3,2.5
				c-2.2,0-3.2-1.7-3.2-3.7c0-1.8,0.9-3.7,3.2-3.7c2.2,0,3.1,2,3.1,3.9H197.5z M202,139.7c0-1.3-0.8-2.5-2.2-2.5
				c-1.4,0-2.2,1.2-2.3,2.5H202z"/>
		</g>
		<g>
			<path class="st13" d="M209.2,138.7c0-1.1-0.9-1.5-1.8-1.5c-0.8,0-1.7,0.3-1.7,1.2c0,0.8,0.9,1,1.4,1.2l1.1,0.3c1,0.1,2,0.7,2,1.9
				c0,1.5-1.5,2.1-2.8,2.1c-1.6,0-2.7-0.8-2.9-2.5h0.9c0.1,1.2,0.9,1.7,2.1,1.7c0.8,0,1.9-0.4,1.9-1.3c0-0.8-0.8-1.1-1.5-1.3
				l-1.1-0.2c-1.1-0.3-1.9-0.7-1.9-1.9c0-1.4,1.4-2,2.6-2c1.4,0,2.5,0.7,2.6,2.2H209.2z"/>
		</g>
		<g>
			<path class="st13" d="M216.7,138.7c0-1.1-0.9-1.5-1.8-1.5c-0.8,0-1.7,0.3-1.7,1.2c0,0.8,0.9,1,1.4,1.2l1.1,0.3c1,0.1,2,0.7,2,1.9
				c0,1.5-1.5,2.1-2.8,2.1c-1.6,0-2.7-0.8-2.9-2.5h0.9c0.1,1.2,0.9,1.7,2.1,1.7c0.8,0,1.9-0.4,1.9-1.3c0-0.8-0.8-1.1-1.5-1.3
				l-1.1-0.2c-1.1-0.3-1.9-0.7-1.9-1.9c0-1.4,1.4-2,2.6-2c1.4,0,2.5,0.7,2.6,2.2H216.7z"/>
		</g>
	</g>
	<circle class="st14" cx="151.5" cy="140.3" r="1.4"/>
	<circle class="st14" cx="75" cy="140.3" r="1.4"/>
	<g>
		<linearGradient id="SVGID_13_" gradientUnits="userSpaceOnUse" x1="116.5065" y1="95.7779" x2="156.4097" y2="0.6242">
			<stop  offset="0" style="stop-color:#112369;stop-opacity:0.2"/>
			<stop  offset="4.559774e-002" style="stop-color:#003F84;stop-opacity:0.3619"/>
			<stop  offset="9.117169e-002" style="stop-color:#00559A;stop-opacity:0.5237"/>
			<stop  offset="0.1365" style="stop-color:#0064AB;stop-opacity:0.6846"/>
			<stop  offset="0.1814" style="stop-color:#006DB7;stop-opacity:0.8439"/>
			<stop  offset="0.2254" style="stop-color:#0072BC"/>
			<stop  offset="0.5645" style="stop-color:#0089CF"/>
		</linearGradient>
		<path class="st15" d="M170.7,6.6c-2.4,3.1-4.5,6.4-6.5,9.3l-0.8,1.2c-4.8,7.2-9.3,15.1-13.7,22.6l-0.4,0.7
			c-8.1,14.1-16.5,28.7-27.2,40.5c-5.4,5.9-11.4,9.2-16.9,9.2c-1,0-2-0.1-2.9-0.3c0.4-0.4,0.9-0.7,1.3-1.1
			c5.9-5.4,10.6-11.8,14.8-18c5.9-8.7,11.1-17.9,16-26.9c4.7-8.5,10.1-18.2,15.8-26.4c3.8-5.5,12.1-10.3,18.4-10.7
			c0.4,0,0.9,0,1.5,0H170.7z"/>
	</g>
	<path class="st16" d="M88.4,83.2l-0.1,0.1l-2.9,3.4c0,0-3.2-8.2-4.6-13.5c-2.5-9.7-3.9-19.1-3.9-19.1l3-5.2"/>
	<linearGradient id="SVGID_14_" gradientUnits="userSpaceOnUse" x1="138.9252" y1="77.926" x2="135.2278" y2="75.4409">
		<stop  offset="1.612903e-002" style="stop-color:#000000;stop-opacity:0.2"/>
		<stop  offset="0.9677" style="stop-color:#000000"/>
	</linearGradient>
	<path class="st17" d="M144.9,68.8l0,0.2c0,0-5.5,8.6-10.3,14.2c0,0,0,0,0,0c-0.2,0.2-0.4,0.4-0.6,0.5c-2.3,2.1-4.9,3.6-7.4,2.1
		c0.2-0.2,0.3-0.3,0.5-0.5c5.9-6.5,11.1-13.7,15.9-21.2C143.4,65.6,144.1,67.2,144.9,68.8z"/>
	<linearGradient id="SVGID_15_" gradientUnits="userSpaceOnUse" x1="56.4323" y1="94.1701" x2="107.9171" y2="39.715">
		<stop  offset="0" style="stop-color:#72BF44"/>
		<stop  offset="0.3929" style="stop-color:#50B848"/>
		<stop  offset="0.5418" style="stop-color:#4CB547"/>
		<stop  offset="0.631" style="stop-color:#3FAE46"/>
		<stop  offset="0.7044" style="stop-color:#25A444"/>
		<stop  offset="0.7692" style="stop-color:#009642"/>
		<stop  offset="0.8279" style="stop-color:#00853D"/>
		<stop  offset="0.8808" style="stop-color:#007236"/>
	</linearGradient>
	<path class="st18" d="M85.1,41.1c3.7-5.3,10.3-10.1,17.3-12.3c0.2-0.1,0.5-0.1,0.7-0.1c-0.3,0-0.5,0.1-0.7,0.1
		c5,3.5,8,8.5,9.9,13.6c0.1,0.3,0.2,0.5,0.3,0.8c-1.2,1.8-2.4,3.5-3.5,5.2c-7.4,11.2-12.9,23.5-20.8,34.9
		c-4.7,6.8-14.6,13-23.4,13.5c-5.9,0.4-11.4-1-16.1-1.9c6-4.4,11-12.1,15.5-18.9C71.8,64.7,77.2,52.4,85.1,41.1L85.1,41.1z"/>
	<linearGradient id="SVGID_16_" gradientUnits="userSpaceOnUse" x1="58.3903" y1="99.2152" x2="102.2844" y2="41.7899">
		<stop  offset="1.075269e-002" style="stop-color:#72BF44"/>
		<stop  offset="0.5484" style="stop-color:#62BB46"/>
		<stop  offset="0.6041" style="stop-color:#58B545;stop-opacity:0.8327"/>
		<stop  offset="0.6778" style="stop-color:#3EA843;stop-opacity:0.6118"/>
		<stop  offset="0.7615" style="stop-color:#009440;stop-opacity:0.3608"/>
		<stop  offset="0.8519" style="stop-color:#007B39;stop-opacity:8.946794e-002"/>
		<stop  offset="0.8817" style="stop-color:#007236;stop-opacity:0"/>
	</linearGradient>
	<path class="st19" d="M109.7,42.8c-0.9,1.4-1.8,2.7-2.7,4.1c-3.5,5.3-6.7,10.9-9.7,16.3c-3.4,6.2-6.9,12.5-11.1,18.5
		C81.7,88.1,72.3,93.6,64.8,94c-0.6,0-1.2,0.1-1.8,0.1c-2.9,0-5.7-0.4-8.3-0.9c4.1-4.2,7.7-9.6,11-14.5l0.9-1.4
		c3.5-5.3,6.7-10.9,9.7-16.4c3.4-6.1,7-12.5,11.1-18.4c3.2-4.6,8.8-8.8,14.6-10.9C105.2,34.4,107.8,38,109.7,42.8z"/>
	<linearGradient id="SVGID_17_" gradientUnits="userSpaceOnUse" x1="60.0015" y1="95.5754" x2="102.7405" y2="42.1104">
		<stop  offset="0" style="stop-color:#4FB748;stop-opacity:0"/>
		<stop  offset="1.255152e-002" style="stop-color:#53B847;stop-opacity:3.705686e-002"/>
		<stop  offset="0.1392" style="stop-color:#75C043;stop-opacity:0.4109"/>
		<stop  offset="0.2519" style="stop-color:#87C540;stop-opacity:0.7437"/>
		<stop  offset="0.3387" style="stop-color:#8DC63F"/>
		<stop  offset="0.7312" style="stop-color:#50B848"/>
		<stop  offset="0.7856" style="stop-color:#38AB46;stop-opacity:0.7977"/>
		<stop  offset="0.8902" style="stop-color:#009040;stop-opacity:0.4083"/>
		<stop  offset="1" style="stop-color:#007236;stop-opacity:0"/>
	</linearGradient>
	<path class="st20" d="M106.7,42.5c-0.7,1-1.3,2-1.9,2.9c-3.6,5.4-6.7,11.1-9.8,16.5L94.9,62c-3.4,6.1-6.9,12.3-10.9,18.1
		C80,86,71.3,91,64.7,91.4c-0.6,0-1.1,0.1-1.7,0.1c-1.1,0-2.1-0.1-3.1-0.1c2.9-3.5,5.5-7.4,7.8-10.9l0.1-0.2l0.9-1.3
		c3.6-5.4,6.8-11.1,9.8-16.6c3.4-6.1,6.9-12.4,10.9-18.2c2.6-3.7,7.2-7.3,12-9.3C103.5,36.8,105.3,39.3,106.7,42.5z"/>
	<linearGradient id="SVGID_18_" gradientUnits="userSpaceOnUse" x1="67.621" y1="103.3162" x2="78.1606" y2="53.6913">
		<stop  offset="0" style="stop-color:#FFFFFF;stop-opacity:0.7"/>
		<stop  offset="4.863675e-002" style="stop-color:#F6FAF3;stop-opacity:0.6393"/>
		<stop  offset="0.1351" style="stop-color:#E5F1DB;stop-opacity:0.5312"/>
		<stop  offset="0.2495" style="stop-color:#CBE4B6;stop-opacity:0.3884"/>
		<stop  offset="0.3873" style="stop-color:#A6D386;stop-opacity:0.2162"/>
		<stop  offset="0.5436" style="stop-color:#78C148;stop-opacity:2.101672e-002"/>
		<stop  offset="0.5605" style="stop-color:#72BF44;stop-opacity:0"/>
		<stop  offset="0.9628" style="stop-color:#50B848;stop-opacity:0"/>
	</linearGradient>
	<path class="st21" d="M91.2,74.4c-1.7,2.8-3.5,5.7-5.4,8.4c-4.5,6.5-13.7,11.8-21.2,12.2c-0.6,0-1.2,0-1.8,0
		c-3.7,0-7.3-0.6-10.5-1.3c4.1-3.7,7.7-8.8,10.9-13.6c1.6,2.1,3.8,3.8,6.6,4.5C75.9,86.1,84.2,80.8,91.2,74.4z"/>
	<linearGradient id="SVGID_19_" gradientUnits="userSpaceOnUse" x1="104.6226" y1="36.224" x2="106.7955" y2="33.3527">
		<stop  offset="1.612903e-002" style="stop-color:#000000;stop-opacity:0.2"/>
		<stop  offset="0.9677" style="stop-color:#000000"/>
	</linearGradient>
	<path class="st22" d="M112.6,43.1c-1.1,1.6-6.9-9.9-18.5-10.4c2.6-1.7,5.4-3,8.3-3.9c5,3.5,8,8.4,10,13.6
		C112.5,42.6,112.6,42.8,112.6,43.1z"/>
	<linearGradient id="SVGID_20_" gradientUnits="userSpaceOnUse" x1="100.1679" y1="71.462" x2="96.1597" y2="68.5322">
		<stop  offset="1.612903e-002" style="stop-color:#000000;stop-opacity:0.2"/>
		<stop  offset="0.9677" style="stop-color:#000000"/>
	</linearGradient>
	<path class="st23" d="M107.1,61.1c-3.9,7.7-13.5,21.3-15.8,24.6c-0.9-0.6-1.7-1.6-2.5-3.1c6.3-9.1,11-18.8,16.5-28
		C105.8,56.7,106.4,58.9,107.1,61.1z"/>
	<linearGradient id="SVGID_21_" gradientUnits="userSpaceOnUse" x1="160.0632" y1="35.1785" x2="162.0384" y2="-7.9182">
		<stop  offset="3.718600e-002" style="stop-color:#005BAA;stop-opacity:0"/>
		<stop  offset="0.1211" style="stop-color:#005FAD;stop-opacity:8.718422e-002"/>
		<stop  offset="0.2716" style="stop-color:#356CB5;stop-opacity:0.2435"/>
		<stop  offset="0.4714" style="stop-color:#6684C2;stop-opacity:0.451"/>
		<stop  offset="0.7129" style="stop-color:#A0B0DA;stop-opacity:0.7018"/>
		<stop  offset="0.9873" style="stop-color:#F8F8FC;stop-opacity:0.9868"/>
		<stop  offset="1" style="stop-color:#FFFFFF"/>
	</linearGradient>
	<path class="st24" d="M181.2,2.3c-2.5,2.2-4.8,5-7,7.8c-2.4-1.6-5.9-2.6-12.4-1.7c-7.3,1-16.5,8.8-20.9,12.9c1.6-2.5,3.2-5,4.8-7.3
		c4.8-6.9,14.4-12.5,22.4-13c0.6,0,1.2-0.1,1.9-0.1C174,0.9,177.8,1.6,181.2,2.3z"/>
</g>
</svg>
