<svg xmlns="http://www.w3.org/2000/svg" xmlns:xlink="http://www.w3.org/1999/xlink" version="1.1" id="Layer_1" x="0px" y="0px" viewBox="0 0 100 100" enable-background="new 0 0 100 100" xml:space="preserve" height="100px" width="100px">
<path fill="#B3B3B3" d="M50,67c-1.104,0-2,0.896-2,2v4c0,1.104,0.896,2,2,2s2-0.896,2-2v-4C52,67.896,51.104,67,50,67z"/>
<path fill="#B3B3B3" d="M40.837,34.865c0.171-0.183,0.351-0.383,0.542-0.597c1.709-1.907,4.051-4.518,9.146-4.518  c5.659,0,9.162,3.698,9.162,7.125c0,3.433-1.671,4.969-5.452,8.117l-0.266,0.222C49.76,48.722,48,51.413,48,59c0,1.104,0.896,2,2,2  s2-0.896,2-2c0-6.37,1.174-7.917,4.53-10.714l0.265-0.221c3.698-3.079,6.892-5.738,6.892-11.19c0-5.351-5.032-11.125-13.162-11.125  c-6.881,0-10.292,3.804-12.124,5.847c-0.173,0.193-0.335,0.374-0.488,0.539c-0.754,0.808-0.71,2.073,0.097,2.827  C38.818,35.716,40.084,35.672,40.837,34.865z"/>
<path fill="#B3B3B3" d="M50,92c22.766,0,42-19.233,42-42S72.766,8,50,8S8,27.233,8,50S27.234,92,50,92z M50,12  c20.598,0,38,17.402,38,38S70.598,88,50,88S12,70.598,12,50S29.402,12,50,12z"/>
</svg>